<?xml version="1.0" encoding="UTF-8" standalone="no"?>
<svg width="326px" height="95px" viewBox="0 0 326 95" version="1.1" xmlns="http://www.w3.org/2000/svg" xmlns:xlink="http://www.w3.org/1999/xlink">
    <!-- Generator: Sketch 39.1 (31720) - http://www.bohemiancoding.com/sketch -->
    <title>Gen_Impact_LOGO2white_notrademark</title>
    <desc>Created with Sketch.</desc>
    <defs>
        <polygon id="path-1" points="0.784 18.94 15.426 18.94 15.426 0.824 0.784 0.824 0.784 18.94"></polygon>
        <polygon id="path-3" points="0.249 18.94 32.585 18.94 32.585 0.824 0.249 0.824 0.249 18.94"></polygon>
        <polygon id="path-5" points="0.06 94.94 325.501 94.94 325.501 0.886 0.06 0.886"></polygon>
    </defs>
    <g id="Page-1" stroke="none" stroke-width="1" fill="none" fill-rule="evenodd">
        <g id="Gen_Impact_LOGO2white_notrademark">
            <g id="Group-3" transform="translate(84.000000, 76.000000)">
                <mask id="mask-2" fill="white">
                    <use xlink:href="#path-1"></use>
                </mask>
                <g id="Clip-2"></g>
                <path d="M10.127,0.824 C4.732,0.824 0.784,5.71 0.784,11.569 C0.784,16.251 3.638,19 8.015,19 C10.256,19 12.267,18.311 13.82,17.372 L15.192,8.868 L8.521,8.868 L8.521,11.541 L11.759,11.541 L11.146,15.563 C10.384,15.999 9.467,16.251 8.295,16.251 C5.93,16.251 4.199,14.698 4.199,11.339 C4.199,7.136 6.59,3.646 10.051,3.646 C11.759,3.646 13.285,4.239 14.505,5.175 L15.426,2.198 C14.023,1.306 12.292,0.824 10.127,0.824" id="Fill-1" fill="#FFFFFF" mask="url(#mask-2)"></path>
            </g>
            <polyline id="Fill-4" fill="#FFFFFF" points="104.087 77.13 101.312 94.696 111.14 94.696 111.6 91.921 105.053 91.921 105.843 86.978 111.115 86.978 111.115 84.13 106.305 84.13 106.966 79.904 113.28 79.904 113.714 77.13 104.087 77.13"></polyline>
            <polyline id="Fill-5" fill="#FFFFFF" points="127.286 77.13 125.529 88.405 120.207 77.13 117.024 77.13 114.251 94.696 117.281 94.696 119.243 82.297 125.097 94.696 127.544 94.696 130.315 77.13 127.286 77.13"></polyline>
            <polyline id="Fill-6" fill="#FFFFFF" points="134.472 77.13 131.696 94.696 141.523 94.696 141.979 91.921 135.436 91.921 136.227 86.978 141.499 86.978 141.499 84.13 136.688 84.13 137.347 79.904 143.662 79.904 144.094 77.13 134.472 77.13"></polyline>
            <path d="M149.447,85.302 L150.284,79.752 L151.561,79.752 C153.544,79.752 154.589,80.539 154.589,82.12 C154.589,84.132 153.241,85.302 150.718,85.302 L149.447,85.302 L149.447,85.302 Z M151.712,77.128 L147.436,77.128 L144.659,94.696 L147.943,94.696 L149.038,87.795 L150.21,87.795 L153.672,94.873 L157.109,94.235 L153.595,87.234 C156.27,86.473 157.873,84.59 157.873,81.789 C157.873,78.579 155.482,77.128 151.712,77.128 L151.712,77.128 Z" id="Fill-7" fill="#FFFFFF"></path>
            <path d="M167.757,77.052 L158.794,94.696 L162.157,94.696 L164.294,90.239 L170.279,90.239 L171.043,94.873 L174.4,94.24 L171.165,77.052 L167.757,77.052 L167.757,77.052 Z M168.747,80.82 L169.841,87.516 L165.537,87.516 L168.747,80.82 L168.747,80.82 Z" id="Fill-8" fill="#FFFFFF"></path>
            <polyline id="Fill-9" fill="#FFFFFF" points="176.591 77.13 176.138 79.956 181.101 79.956 178.782 94.696 182.118 94.696 184.436 79.956 189.631 79.956 189.631 77.13 176.591 77.13"></polyline>
            <polyline id="Fill-10" fill="#FFFFFF" points="192.512 77.13 189.737 94.696 193.072 94.696 195.847 77.13 192.512 77.13"></polyline>
            <g id="Group-14" transform="translate(197.000000, 76.000000)">
                <mask id="mask-4" fill="white">
                    <use xlink:href="#path-3"></use>
                </mask>
                <g id="Clip-12"></g>
                <polyline id="Fill-11" fill="#FFFFFF" mask="url(#mask-4)" points="13.285 1.13 11.529 12.405 6.208 1.13 3.023 1.13 0.249 18.696 3.282 18.696 5.239 6.297 11.095 18.696 13.539 18.696 16.314 1.13 13.285 1.13"></polyline>
                <path d="M27.294,0.824 C21.895,0.824 17.95,5.71 17.95,11.569 C17.95,16.251 20.8,19 25.183,19 C27.421,19 29.434,18.311 30.986,17.372 L32.359,8.868 L25.689,8.868 L25.689,11.541 L28.925,11.541 L28.313,15.563 C27.548,15.999 26.633,16.251 25.463,16.251 C23.091,16.251 21.36,14.698 21.36,11.339 C21.36,7.136 23.757,3.646 27.218,3.646 C28.925,3.646 30.451,4.239 31.671,5.175 L32.585,2.198 C31.188,1.306 29.458,0.824 27.294,0.824" id="Fill-13" fill="#FFFFFF" mask="url(#mask-4)"></path>
            </g>
            <polyline id="Fill-15" fill="#FFFFFF" points="239.706 77.13 236.929 94.696 240.265 94.696 243.039 77.13 239.706 77.13"></polyline>
            <polyline id="Fill-16" fill="#FFFFFF" points="260.405 77.13 254.189 90.266 252.154 77.13 247.951 77.13 243.855 94.696 246.781 94.696 249.736 81.864 251.803 94.774 254.651 94.774 260.811 81.864 259.719 94.696 263.028 94.696 264.478 77.13 260.405 77.13"></polyline>
            <path d="M271.333,85.556 L272.224,79.75 L273.397,79.75 C275.512,79.75 276.45,80.693 276.425,82.324 C276.425,84.36 275.129,85.556 272.479,85.556 L271.333,85.556 L271.333,85.556 Z M273.55,77.13 L269.377,77.13 L266.602,94.696 L269.881,94.696 L270.928,88.176 L272.2,88.176 C276.832,88.176 279.659,85.86 279.685,81.991 C279.685,78.884 277.626,77.13 273.55,77.13 L273.55,77.13 Z" id="Fill-17" fill="#FFFFFF"></path>
            <g id="Group-23">
                <mask id="mask-6" fill="white">
                    <use xlink:href="#path-5"></use>
                </mask>
                <g id="Clip-19"></g>
                <path d="M287.173,77.052 L278.211,94.696 L281.577,94.696 L283.712,90.239 L289.695,90.239 L290.46,94.873 L293.823,94.24 L290.581,77.052 L287.173,77.052 L287.173,77.052 Z M288.167,80.82 L289.26,87.516 L284.961,87.516 L288.167,80.82 L288.167,80.82 Z" id="Fill-18" fill="#FFFFFF" mask="url(#mask-6)"></path>
                <path d="M305.206,76.824 C299.96,76.824 296.166,81.581 296.166,87.541 C296.166,92.376 299.02,95 303.192,95 C304.797,95 306.527,94.492 307.801,93.78 L307.801,90.825 C306.505,91.642 305.055,92.173 303.676,92.173 C301.204,92.173 299.552,90.645 299.552,87.237 C299.552,83.29 301.791,79.698 305.18,79.698 C306.734,79.698 307.954,80.363 309.023,81.353 L309.963,78.349 C308.797,77.433 307.292,76.824 305.206,76.824" id="Fill-20" fill="#FFFFFF" mask="url(#mask-6)"></path>
                <polyline id="Fill-21" fill="#FFFFFF" mask="url(#mask-6)" points="312.467 77.13 312.007 79.956 316.973 79.956 314.654 94.696 317.987 94.696 320.307 79.956 325.501 79.956 325.501 77.13 312.467 77.13"></polyline>
                <path d="M21.486,50.117 C14.768,50.117 9.508,48.528 5.705,45.349 C1.902,42.171 0,37.657 0,31.81 C0,22.699 2.936,15.268 8.803,9.513 C14.674,3.762 22.122,0.886 31.148,0.886 C34.559,0.886 37.722,1.176 40.635,1.758 C43.549,2.343 46.572,3.449 49.709,5.08 L47.007,16.172 L45.641,16.172 C43.098,13.757 40.693,12.077 38.426,11.136 C36.158,10.192 33.658,9.72 30.925,9.72 C28.148,9.72 25.639,10.287 23.393,11.419 C21.146,12.55 19.229,14.082 17.64,16.008 C16.135,17.828 14.959,19.986 14.112,22.485 C13.265,24.983 12.841,27.596 12.841,30.326 C12.841,34.116 13.881,36.905 15.959,38.693 C18.037,40.482 21.422,41.376 26.111,41.376 C26.578,41.376 27.087,41.366 27.639,41.345 C28.19,41.324 28.699,41.292 29.166,41.25 L31.615,30.936 L22.178,30.936 L24.382,21.947 L46.217,21.947 L40.364,46.43 C37.546,47.404 34.543,48.263 31.354,49.005 C28.165,49.746 24.875,50.117 21.486,50.117" id="Fill-22" fill="#FFFFFF" mask="url(#mask-6)"></path>
            </g>
            <polyline id="Fill-24" fill="#FFFFFF" points="93.539 1.806 91.474 10.8 69.387 10.8 66.76 21.917 87.24 21.917 85.146 30.912 64.676 30.912 62.586 40.136 84.641 40.136 82.606 49.131 48.312 49.131 59.23 1.806 93.539 1.806"></polyline>
            <polyline id="Fill-25" fill="#FFFFFF" points="133.316 49.131 122.878 49.131 108.986 16.364 101.426 49.131 90.174 49.131 101.093 1.806 114.758 1.806 126.66 29.204 132.947 1.806 144.232 1.806 133.316 49.131"></polyline>
            <path d="M176.172,16.078 C176.172,14.234 175.503,12.866 174.166,11.978 C172.827,11.087 170.843,10.643 168.211,10.643 L163.275,10.643 L160.005,24.818 L164.396,24.818 C168.108,24.818 171.001,24.06 173.068,22.545 C175.139,21.03 176.172,18.874 176.172,16.078 L176.172,16.078 Z M189.202,14.901 C189.202,20.537 186.867,25.082 182.193,28.536 C177.52,31.991 170.987,33.716 162.595,33.716 L157.953,33.716 L154.396,49.131 L142.132,49.131 L153.051,1.806 L170.063,1.806 C173.155,1.806 175.854,2.018 178.153,2.442 C180.454,2.867 182.44,3.599 184.115,4.635 C185.77,5.674 187.03,7.025 187.898,8.687 C188.768,10.352 189.202,12.423 189.202,14.901 L189.202,14.901 Z" id="Fill-26" fill="#FFFFFF"></path>
            <path d="M212.196,30.984 L210.265,14.088 L200.575,30.984 L212.196,30.984 L212.196,30.984 Z M226.497,49.131 L214.176,49.131 L213.089,39.471 L195.746,39.471 L190.21,49.131 L177.425,49.131 L205.807,1.806 L219.918,1.806 L226.497,49.131 L226.497,49.131 Z" id="Fill-27" fill="#FFFFFF"></path>
            <path d="M250.082,50.053 C243.683,50.053 238.747,48.479 235.272,45.333 C231.797,42.186 230.058,37.68 230.058,31.81 C230.058,27.169 230.826,22.964 232.363,19.192 C233.899,15.42 236.015,12.158 238.704,9.403 C241.331,6.733 244.484,4.646 248.161,3.142 C251.836,1.638 255.697,0.886 259.745,0.886 C263.008,0.886 266.037,1.218 268.835,1.887 C271.632,2.554 274.153,3.533 276.398,4.826 L273.603,16.301 L272.204,16.301 C270.19,14.138 268.188,12.549 266.195,11.532 C264.206,10.515 261.864,10.006 259.174,10.006 C254.447,10.006 250.555,11.904 247.492,15.695 C244.431,19.489 242.899,24.32 242.899,30.189 C242.899,33.96 243.747,36.695 245.441,38.388 C247.136,40.084 249.616,40.931 252.879,40.931 C255.803,40.931 258.548,40.343 261.111,39.167 C263.676,37.992 266.102,36.492 268.389,34.67 L269.661,34.67 L266.897,45.985 C265.942,46.366 264.832,46.827 263.558,47.368 C262.289,47.907 261.067,48.347 259.903,48.686 C258.377,49.131 256.953,49.47 255.628,49.703 C254.305,49.937 252.455,50.053 250.082,50.053" id="Fill-28" fill="#FFFFFF"></path>
            <polyline id="Fill-29" fill="#FFFFFF" points="320.599 10.961 305.856 10.961 297.042 49.131 284.779 49.131 293.589 10.961 278.837 10.961 280.934 1.806 322.696 1.806 320.599 10.961"></polyline>
        </g>
    </g>
</svg>